<?xml version="1.0" encoding="iso-8859-1"?>
<!-- Generator: Adobe Illustrator 19.0.0, SVG Export Plug-In . SVG Version: 6.00 Build 0)  -->
<svg version="1.1" id="Layer_1" xmlns="http://www.w3.org/2000/svg" xmlns:xlink="http://www.w3.org/1999/xlink" x="0px" y="0px"
	 viewBox="0 0 502 502" style="enable-background:new 0 0 502 502;" xml:space="preserve">
<g>
	<path style="fill:#CCCCCC;" d="M416.472,200.766c-2.054-0.136-4.026-0.178-5.891-0.115l-100.028,3.627l-90.841-165.21
		c-8.017-14.581-23.337-23.64-39.977-23.64h-19.993l56.285,192.278L68.807,221l-24.62-72H10l15,102L10,353h34.187l24.62-72
		l147.22,13.294l-56.285,192.278h19.993c16.64,0,31.959-9.059,39.977-23.64l90.841-165.21l100.028,3.627
		c2.049,0.069,4.227,0.011,6.5-0.159C419.173,281.806,421,261.791,421,251C421,240.342,418.805,219.7,416.472,200.766z"/>
	<path style="fill:#CCCCCC;" d="M492,251c0-17.648-20.318-33.119-42.55-42.11c1.933,16.463,3.55,32.964,3.55,42.11
		c0,9.256-1.344,25.297-3.046,41.906C471.987,283.885,492,268.515,492,251z"/>
	<path style="fill:#29ABE2;" d="M449.45,208.89c-11.306-4.573-23.103-7.47-32.978-8.124C418.805,219.7,421,240.342,421,251
		c0,10.791-1.827,30.806-3.919,50.19c9.897-0.741,21.645-3.688,32.872-8.284C451.656,276.297,453,260.256,453,251
		C453,241.854,451.383,225.353,449.45,208.89z"/>
	<g>
		<path d="M453.2,199.619c-12.283-4.968-25.092-8.104-36.066-8.832c-0.001,0-0.002,0-0.003,0c-2.416-0.161-4.736-0.204-6.912-0.13
			l-93.872,3.404L228.475,34.25C218.7,16.472,200.024,5.428,179.736,5.428h-19.993c-3.149,0-6.114,1.483-8.003,4.004
			s-2.479,5.783-1.595,8.806l52.867,180.603L75.729,210.335l-22.079-64.57c-1.383-4.046-5.186-6.765-9.462-6.765H10
			c-2.906,0-5.668,1.264-7.568,3.463c-1.899,2.2-2.748,5.116-2.325,7.992L14.893,251L0.107,351.545
			c-0.423,2.875,0.426,5.792,2.325,7.992C4.332,361.736,7.094,363,10,363h34.188c4.276,0,8.079-2.719,9.462-6.765l22.079-64.57
			l127.283,11.494l-52.867,180.603c-0.885,3.023-0.294,6.285,1.595,8.806s4.854,4.004,8.003,4.004h19.993
			c20.288,0,38.964-11.044,48.739-28.822l87.872-159.812l93.896,3.404c2.364,0.079,4.917,0.019,7.586-0.181
			c0.002,0,0.003,0,0.005-0.001c10.991-0.824,23.743-4.021,35.908-9.001C483.96,289.789,502,270.664,502,251
			C502,231.186,483.757,211.979,453.2,199.619z M440.211,216.098C442.038,232.402,443,244.408,443,251
			c0,6.906-0.802,18.591-2.382,34.759c-4.105,1.443-8.247,2.644-12.253,3.561C430.115,271.637,431,258.777,431,251
			c0-7.62-1.027-20.514-3.056-38.417h0.001C431.945,213.481,436.093,214.668,440.211,216.098z M69.706,271.041
			c-4.598-0.412-8.87,2.362-10.361,6.724L37.038,343h-15.46l13.315-90.545c0.142-0.965,0.142-1.945,0-2.91L21.578,159h15.46
			l22.307,65.235c1.49,4.36,5.764,7.138,10.361,6.724l147.22-13.294c2.979-0.269,5.682-1.857,7.365-4.33s2.173-5.568,1.333-8.439
			L173.089,25.428h6.646c12.993,0,24.953,7.073,31.214,18.459l82.98,150.913l-14.331,0.577c-5.519,0.222-9.812,4.875-9.59,10.394
			c0.217,5.381,4.647,9.598,9.985,9.598c0.136,0,0.272-0.002,0.409-0.008l28.949-1.165c0.515,0.063,1.036,0.096,1.564,0.077
			l96.688-3.506C409.831,229.843,411,243.658,411,251c0,7.581-1.008,21.4-2.93,40.251l-88.16-3.197
			c-0.18-0.016-0.357-0.041-0.54-0.047l-104.741-3.879L69.706,271.041z M210.949,458.113c-6.261,11.386-18.221,18.459-31.214,18.459
			h-6.646l50.379-172.104l8.643,0.32l-13.875,47.402c-1.551,5.3,1.488,10.855,6.788,12.406c0.938,0.274,1.884,0.405,2.814,0.405
			c4.326,0,8.315-2.831,9.593-7.193l15.296-52.257l41.268,1.529L210.949,458.113z M461.608,275.87
			C462.533,264.97,463,256.64,463,251c0-5.548-0.548-13.93-1.635-25.027C474.138,233.793,482,243.026,482,251
			C482,258.9,474.23,268.077,461.608,275.87z"/>
		<path d="M245.994,216.737c0.136,0,0.271-0.002,0.408-0.008l5.999-0.241c5.519-0.222,9.813-4.875,9.591-10.394
			c-0.223-5.519-4.887-9.82-10.394-9.59l-5.999,0.241c-5.519,0.222-9.813,4.875-9.591,10.394
			C236.226,212.52,240.656,216.737,245.994,216.737z"/>
		<path d="M223.031,371.402c-5.302-1.55-10.855,1.487-12.407,6.788l-6.44,22.001c-1.551,5.301,1.488,10.855,6.788,12.407
			c0.938,0.274,1.884,0.405,2.814,0.405c4.326,0,8.315-2.831,9.593-7.193l6.44-22.001
			C231.37,378.508,228.331,372.954,223.031,371.402z"/>
	</g>
</g>
<g>
</g>
<g>
</g>
<g>
</g>
<g>
</g>
<g>
</g>
<g>
</g>
<g>
</g>
<g>
</g>
<g>
</g>
<g>
</g>
<g>
</g>
<g>
</g>
<g>
</g>
<g>
</g>
<g>
</g>
</svg>
