<?xml version="1.0" encoding="iso-8859-1"?>
<!-- Generator: Adobe Illustrator 19.0.0, SVG Export Plug-In . SVG Version: 6.00 Build 0)  -->
<svg version="1.1" id="Layer_1" xmlns="http://www.w3.org/2000/svg" xmlns:xlink="http://www.w3.org/1999/xlink" x="0px" y="0px"
	 viewBox="0 0 297.001 297.001" style="enable-background:new 0 0 297.001 297.001;" xml:space="preserve">
<g id="XMLID_27_">
	<g>
		<path style="fill:#67F0FF;" d="M150.487,21.172c34.721,0,67.119,15.725,87.904,45.079L186.74,96.465
			c-21.586-34.652-45.494-59.44-67.257-71.152C129.86,22.546,140.277,21.172,150.487,21.172z"/>
		<path d="M238.391,66.251c-20.785-29.354-53.183-45.079-87.904-45.079c-10.21,0-20.627,1.374-31.005,4.141
			c21.764,11.712,45.672,36.5,67.257,71.152L238.391,66.251z M86.412,39.209c-13.125,7.68-13.54,48.133,17.81,105.526l65.449-38.289
			c-29.868-47.787-60.339-68.839-76.597-68.839C90.464,37.608,88.23,38.142,86.412,39.209z M29.72,108.127
			c-7.907,25.47-5.821,52.402,5.782,76.815l51.651-30.224C67.514,118.92,57.631,85.929,58.095,61.22
			C44.881,74.731,35.126,90.722,29.72,108.127z M0,262.696c0-5.456,4.428-9.884,9.884-9.884h190.031l-61.516-105.16L36.579,207.21
			c-1.562,0.919-3.281,1.354-4.981,1.354c-3.39,0-6.701-1.749-8.539-4.892C-12.7,142.542,6.83,68.396,68.048,27.399l-5.06-8.658
			C60.23,14.027,61.812,7.978,66.526,5.22s10.763-1.166,13.521,3.538l5.07,8.658c65.735-33.278,139.931-13.965,175.69,47.164
			c1.324,2.263,1.7,4.962,1.038,7.502c-0.672,2.53-2.313,4.695-4.576,6.019l-101.81,59.568l67.356,115.143h64.302
			c5.466,0,9.884,4.428,9.884,9.884s-4.418,9.884-9.884,9.884h-52.729l4.833,8.282c2.758,4.705,1.176,10.763-3.538,13.521
			c-1.562,0.919-3.281,1.354-4.981,1.354c-3.39,0-6.701-1.749-8.539-4.892l-10.684-18.265H9.884C4.428,272.579,0,268.152,0,262.696z
			"/>
		<path style="fill:#67F0FF;" d="M35.502,184.942c-11.603-24.412-13.689-51.345-5.782-76.815
			c5.406-17.405,15.161-33.396,28.376-46.907c-0.465,24.709,9.419,57.7,29.058,93.498L35.502,184.942z"/>
		<path style="fill:#FF4AA2;" d="M104.222,144.736C72.871,87.342,73.286,46.889,86.412,39.209c1.819-1.067,4.052-1.601,6.661-1.601
			c16.258,0,46.729,21.052,76.597,68.839L104.222,144.736z"/>
	</g>
</g>
<g>
</g>
<g>
</g>
<g>
</g>
<g>
</g>
<g>
</g>
<g>
</g>
<g>
</g>
<g>
</g>
<g>
</g>
<g>
</g>
<g>
</g>
<g>
</g>
<g>
</g>
<g>
</g>
<g>
</g>
</svg>
