<?xml version="1.0" encoding="iso-8859-1"?>
<!-- Generator: Adobe Illustrator 19.0.0, SVG Export Plug-In . SVG Version: 6.00 Build 0)  -->
<svg version="1.1" id="Layer_1" xmlns="http://www.w3.org/2000/svg" xmlns:xlink="http://www.w3.org/1999/xlink" x="0px" y="0px"
	 viewBox="0 0 490 490" style="enable-background:new 0 0 490 490;" xml:space="preserve">
<g>
	<g id="XMLID_26_">
		<g>
			<polygon style="fill:#E7ECED;" points="480,340 480,375 460,375 425,375 65,375 30,375 10,375 10,340 			"/>
			<path style="fill:#AFB6BB;" d="M10,255c0-11.001,9.102-20,20.2-20H40h40h30h120h30h120h30h40h9.805
				c11.094,0,20.195,8.999,20.195,20v85H10V255z"/>
			<rect x="110" y="155" style="fill:#E7ECED;" width="120" height="80"/>
			<rect x="260" y="155" style="fill:#E7ECED;" width="120" height="80"/>
			<path style="fill:#704324;" d="M410,105v130h-30v-80H260v80h-30v-80H110v80H80V105c0-11.001,8.999-20,20-20h290
				C400.996,85,410,93.999,410,105z"/>
			<rect x="30" y="375" style="fill:#A26234;" width="35" height="70"/>
			<rect x="425" y="375" style="fill:#A26234;" width="35" height="70"/>
			<path style="fill:#A26234;" d="M80,105v130H40V55c0-5.498,4.502-10,10-10h20c5.498,0,10,4.502,10,10V105z"/>
			<path style="fill:#A26234;" d="M450,55v180h-40V105V55c0-5.498,4.502-10,10-10h20C445.498,45,450,49.502,450,55z"/>
		</g>
		<g>
			<path style="fill:#231F20;" d="M460,225.005V55c0-11.028-8.972-20-20-20h-20c-11.028,0-20,8.972-20,20v21.72
				c-3.13-1.11-6.494-1.72-10-1.72H100c-3.506,0-6.87,0.61-10,1.72V55c0-11.028-8.972-20-20-20H50c-11.028,0-20,8.972-20,20v170.005
				C13.44,225.113,0,238.525,0,255v120c0,5.523,4.477,10,10,10h10v60c0,5.523,4.477,10,10,10h35c5.523,0,10-4.477,10-10v-60h340v60
				c0,5.523,4.477,10,10,10h35c5.523,0,10-4.477,10-10v-60h10c5.523,0,10-4.477,10-10V255C490,238.523,476.56,225.11,460,225.005z
				 M420,55h20v170h-20V55z M100,95h290c5.514,0,10,4.486,10,10v120h-10v-70c0-5.523-4.477-10-10-10H260c-5.523,0-10,4.477-10,10v70
				h-10v-70c0-5.523-4.477-10-10-10H110c-5.523,0-10,4.477-10,10v70H90V105C90,99.486,94.486,95,100,95z M370,165v60H270v-60H370z
				 M220,165v60H120v-60H220z M70,55v170H50V55H70z M30.2,245h429.604c5.622,0,10.195,4.486,10.195,10v75H20v-40h370v-20H20v-15
				C20,249.486,24.576,245,30.2,245z M55,435H40v-50h15V435z M450,435h-15v-50h15V435z M470,365H20v-15h450V365z"/>
			<rect x="405" y="270" style="fill:#231F20;" width="20" height="20"/>
			<rect x="205" y="110" style="fill:#231F20;" width="80" height="20"/>
			<rect x="295" y="110" style="fill:#231F20;" width="20" height="20"/>
			<rect x="325" y="110" style="fill:#231F20;" width="20" height="20"/>
			<rect x="355" y="110" style="fill:#231F20;" width="20" height="20"/>
			<rect x="175" y="110" style="fill:#231F20;" width="20" height="20"/>
			<rect x="145" y="110" style="fill:#231F20;" width="20" height="20"/>
			<rect x="115" y="110" style="fill:#231F20;" width="20" height="20"/>
		</g>
	</g>
</g>
<g>
</g>
<g>
</g>
<g>
</g>
<g>
</g>
<g>
</g>
<g>
</g>
<g>
</g>
<g>
</g>
<g>
</g>
<g>
</g>
<g>
</g>
<g>
</g>
<g>
</g>
<g>
</g>
<g>
</g>
</svg>
