<?xml version="1.0" encoding="iso-8859-1"?>
<!-- Generator: Adobe Illustrator 19.0.0, SVG Export Plug-In . SVG Version: 6.00 Build 0)  -->
<svg version="1.1" id="Layer_1" xmlns="http://www.w3.org/2000/svg" xmlns:xlink="http://www.w3.org/1999/xlink" x="0px" y="0px"
	 viewBox="0 0 501.999 501.999" style="enable-background:new 0 0 501.999 501.999;" xml:space="preserve">
<g>
	<g>
		<path style="fill:#F77E65;" d="M130.5,404.213c-66.467,0-120.362,15.92-120.497,35.574h240.994
			C250.862,420.133,196.967,404.213,130.5,404.213z"/>
		<path style="fill:#F77E65;" d="M371.5,404.213c-66.467,0-120.362,15.92-120.497,35.574h240.994
			C491.862,420.133,437.967,404.213,371.5,404.213z"/>
		<path style="fill:#F0EFE4;" d="M10,439.861c0-0.025,0.003-0.049,0.003-0.074H10V439.861z"/>
		<path style="fill:#F0EFE4;" d="M250.997,439.786c0,0.025,0.003,0.049,0.003,0.074v-0.074H250.997z"/>
		<path style="fill:#F0EFE4;" d="M130.5,62.139C63.95,62.139,10,78.098,10,97.786v342h0.003
			c0.135-19.654,54.03-35.574,120.497-35.574s120.362,15.92,120.497,35.574H251v-342C251,78.098,197.05,62.139,130.5,62.139z"/>
		<path style="fill:#F0EFE4;" d="M492,439.861v-0.074h-0.003C491.997,439.812,492,439.836,492,439.861z"/>
		<path style="fill:#F0EFE4;" d="M251,439.861c0-0.025,0.003-0.049,0.003-0.074H251V439.861z"/>
		<path style="fill:#F0EFE4;" d="M371.5,62.139c-66.55,0-120.5,15.96-120.5,35.648v342h0.003
			c0.135-19.654,54.03-35.574,120.497-35.574s120.362,15.92,120.497,35.574H492v-342C492,78.098,438.05,62.139,371.5,62.139z"/>
	</g>
	<g>
		<path d="M371.5,52.139c-48.289,0-99.403,8.434-120.5,26.564c-21.097-18.131-72.211-26.564-120.5-26.564
			C67.647,52.139,0,66.424,0,97.786v342v0.074c0,5.523,4.477,10,10,10c0.394,0,0.781-0.029,1.163-0.074h479.673
			c0.382,0.044,0.769,0.074,1.163,0.074c5.523,0,10-4.477,10-10c0-0.012,0-0.023,0-0.035c0-0.013,0-0.026,0-0.039v-342
			C502,66.424,434.353,52.139,371.5,52.139z M289.13,82.169c21.864-6.468,51.117-10.03,82.37-10.03s60.506,3.562,82.37,10.03
			C476.994,89.01,482,96.339,482,97.786v316.237c-24.733-13.481-68.702-19.811-110.5-19.811s-85.767,6.33-110.5,19.811V97.786
			C261,96.339,266.006,89.01,289.13,82.169z M468.927,429.786H274.073c3.882-1.808,8.834-3.706,15.136-5.566
			c21.855-6.454,51.08-10.008,82.291-10.008s60.436,3.554,82.291,10.008C460.093,426.081,465.044,427.979,468.927,429.786z
			 M20,97.786c0-1.448,5.006-8.777,28.13-15.618c21.864-6.468,51.117-10.03,82.37-10.03s60.506,3.562,82.37,10.03
			C235.994,89.01,241,96.339,241,97.786v316.237c-24.733-13.481-68.702-19.811-110.5-19.811s-85.767,6.33-110.5,19.811V97.786z
			 M227.927,429.786H33.073c3.882-1.808,8.834-3.706,15.136-5.566c21.855-6.454,51.08-10.008,82.291-10.008
			s60.436,3.554,82.291,10.008C219.093,426.081,224.044,427.979,227.927,429.786z"/>
		<path d="M100.77,129.188c9.651-0.745,19.653-1.123,29.73-1.123c28.459,0,55.799,3.033,76.984,8.54
			c0.843,0.219,1.689,0.324,2.522,0.324c4.444,0,8.501-2.985,9.671-7.487c1.39-5.345-1.817-10.805-7.163-12.194
			c-22.781-5.922-51.908-9.183-82.016-9.183c-10.588,0-21.109,0.397-31.27,1.182c-5.506,0.425-9.626,5.233-9.201,10.74
			C90.455,125.492,95.27,129.622,100.77,129.188z"/>
		<path d="M50.993,136.928c0.833,0,1.679-0.105,2.522-0.324c4.476-1.164,9.297-2.232,14.331-3.178
			c5.428-1.02,9.001-6.247,7.982-11.674c-1.02-5.428-6.248-9.003-11.674-7.982c-5.481,1.03-10.753,2.2-15.669,3.477
			c-5.346,1.389-8.553,6.849-7.164,12.194C42.492,133.942,46.549,136.928,50.993,136.928z"/>
		<path d="M212.516,168.969c-22.779-5.922-51.906-9.183-82.016-9.183s-59.237,3.261-82.016,9.183
			c-5.345,1.39-8.552,6.849-7.162,12.194s6.85,8.551,12.194,7.162c21.183-5.507,48.523-8.54,76.984-8.54s55.801,3.033,76.984,8.54
			c0.844,0.219,1.69,0.324,2.523,0.324c4.444,0,8.501-2.985,9.671-7.486C221.068,175.818,217.861,170.359,212.516,168.969z"/>
		<path d="M212.516,220.664c-22.779-5.922-51.906-9.183-82.016-9.183s-59.237,3.261-82.016,9.183
			c-5.345,1.39-8.552,6.849-7.162,12.194s6.85,8.551,12.194,7.162c21.183-5.507,48.523-8.54,76.984-8.54s55.801,3.033,76.984,8.54
			c0.844,0.219,1.69,0.324,2.523,0.324c4.444,0,8.501-2.985,9.671-7.486C221.068,227.514,217.861,222.054,212.516,220.664z"/>
		<path d="M212.516,272.387c-22.781-5.922-51.908-9.183-82.016-9.183s-59.235,3.261-82.016,9.183
			c-5.345,1.389-8.552,6.849-7.163,12.194s6.85,8.552,12.194,7.163c21.186-5.507,48.525-8.54,76.984-8.54s55.799,3.033,76.984,8.54
			c0.843,0.219,1.689,0.324,2.522,0.324c4.444,0,8.501-2.985,9.671-7.487C221.068,279.234,217.861,273.776,212.516,272.387z"/>
		<path d="M207.484,343.465c0.844,0.219,1.69,0.324,2.523,0.324c4.444,0,8.501-2.985,9.671-7.486
			c1.39-5.345-1.817-10.805-7.162-12.194c-22.779-5.922-51.906-9.183-82.016-9.183s-59.237,3.261-82.016,9.183
			c-5.345,1.39-8.552,6.849-7.162,12.194s6.85,8.552,12.194,7.162c21.183-5.507,48.523-8.54,76.984-8.54
			S186.301,337.958,207.484,343.465z"/>
		<path d="M294.516,136.604c21.186-5.507,48.525-8.54,76.984-8.54s55.799,3.033,76.984,8.54c0.843,0.219,1.689,0.324,2.522,0.324
			c4.444,0,8.501-2.985,9.671-7.487c1.39-5.345-1.817-10.805-7.163-12.194c-22.781-5.922-51.908-9.183-82.016-9.183
			s-59.235,3.261-82.016,9.183c-5.345,1.389-8.552,6.849-7.163,12.194C283.711,134.786,289.171,137.993,294.516,136.604z"/>
		<path d="M294.516,188.326c21.183-5.507,48.523-8.54,76.984-8.54s55.801,3.033,76.984,8.54c0.844,0.219,1.69,0.324,2.523,0.324
			c4.444,0,8.501-2.985,9.671-7.486c1.39-5.345-1.817-10.805-7.162-12.194c-22.779-5.922-51.906-9.183-82.016-9.183
			s-59.237,3.261-82.016,9.183c-5.345,1.39-8.552,6.849-7.162,12.194S289.171,189.715,294.516,188.326z"/>
		<path d="M294.516,240.02c21.183-5.507,48.523-8.54,76.984-8.54s55.801,3.033,76.984,8.54c0.844,0.219,1.69,0.324,2.523,0.324
			c4.444,0,8.501-2.985,9.671-7.486c1.39-5.345-1.817-10.805-7.162-12.194c-22.779-5.922-51.906-9.183-82.016-9.183
			s-59.237,3.261-82.016,9.183c-5.345,1.39-8.552,6.849-7.162,12.194S289.171,241.41,294.516,240.02z"/>
		<path d="M453.516,272.387c-22.781-5.922-51.908-9.183-82.016-9.183s-59.235,3.261-82.016,9.183
			c-5.345,1.389-8.552,6.849-7.163,12.194s6.849,8.552,12.194,7.163c21.186-5.507,48.525-8.54,76.984-8.54s55.799,3.033,76.984,8.54
			c0.843,0.219,1.689,0.324,2.522,0.324c4.444,0,8.501-2.985,9.671-7.487C462.068,279.234,458.861,273.776,453.516,272.387z"/>
		<path d="M294.516,343.465c21.183-5.507,48.523-8.54,76.984-8.54s55.801,3.033,76.984,8.54c0.844,0.219,1.69,0.324,2.523,0.324
			c4.444,0,8.501-2.985,9.671-7.486c1.39-5.345-1.817-10.805-7.162-12.194c-22.779-5.922-51.906-9.183-82.016-9.183
			s-59.237,3.261-82.016,9.183c-5.345,1.39-8.552,6.849-7.162,12.194S289.171,344.855,294.516,343.465z"/>
	</g>
</g>
<g>
</g>
<g>
</g>
<g>
</g>
<g>
</g>
<g>
</g>
<g>
</g>
<g>
</g>
<g>
</g>
<g>
</g>
<g>
</g>
<g>
</g>
<g>
</g>
<g>
</g>
<g>
</g>
<g>
</g>
</svg>
