<?xml version="1.0" encoding="iso-8859-1"?>
<!-- Generator: Adobe Illustrator 18.0.0, SVG Export Plug-In . SVG Version: 6.00 Build 0)  -->
<!DOCTYPE svg PUBLIC "-//W3C//DTD SVG 1.1//EN" "http://www.w3.org/Graphics/SVG/1.1/DTD/svg11.dtd">
<svg version="1.1" id="Capa_1" xmlns="http://www.w3.org/2000/svg" xmlns:xlink="http://www.w3.org/1999/xlink" x="0px" y="0px"
	 viewBox="0 0 297.502 297.502" style="enable-background:new 0 0 297.502 297.502;" xml:space="preserve">
<g id="XMLID_24_">
	<g>
		<path style="fill:#C0392B;" d="M223.447,46.272c3.17,7.64,4.03,16.2,2.19,24.52l-7.41-3.6
			C221.007,60.152,222.787,53.032,223.447,46.272z"/>
		<path style="fill:#C0392B;" d="M210.397,38.272c0.36,6.9-1.14,15.05-4.18,23.09l-11.62-5.65l14.39-25.18
			C209.757,32.722,210.237,35.322,210.397,38.272z"/>
		<path style="fill:#C0392B;" d="M197.857,23.212l-15.25,26.68l-9.83-4.78C180.537,32.162,190.417,24.492,197.857,23.212z"/>
		<path style="fill:#C0392B;" d="M173.277,22.992c-4.54,4.47-8.8,9.97-12.49,16.29l-6.74-3.27
			C159.137,29.802,165.867,25.352,173.277,22.992z"/>
		<path style="fill:#B8C9F1;" d="M133.567,69.602h39.53c-4.9,15.65-10.28,42.4-0.96,67.58h-10.35L133.567,69.602z"/>
		<path style="fill:#B8C9F1;" d="M112.977,69.602l28.22,67.58h-33.77c9.32-25.18,3.94-51.93-0.96-67.58H112.977z"/>
		<path style="fill:#FFCD02;" d="M181.097,156.182c2.23,5.62,3.33,10.99,3.33,16.24c0,24.62-20.03,44.65-44.65,44.65
			s-44.65-20.03-44.65-44.65c0-5.25,1.1-10.62,3.34-16.24H181.097z"/>
		<path d="M219.347,12.402c24.22,16.42,33.39,48.65,20.23,75.73c-1.1,2.26-3.06,4-5.44,4.82c-1.01,0.35-2.06,0.53-3.11,0.53
			c-1.42,0-2.84-0.32-4.15-0.96l-35.58-17.29c-4.61,14.76-9.97,41.55,2.33,63.3c6.6,11.66,9.8,22.75,9.8,33.89
			c0,31.87-23.54,58.34-54.15,62.94v42.89h21.85c5.25,0,9.5,4.25,9.5,9.5s-4.25,9.5-9.5,9.5h-62.7c-5.24,0-9.5-4.25-9.5-9.5
			s4.26-9.5,9.5-9.5h21.85v-42.89c-30.6-4.6-54.14-31.07-54.14-62.94c0-11.14,3.2-22.23,9.8-33.89
			c17.89-31.64-1.58-73.96-1.77-74.38c-1.38-2.94-1.17-6.39,0.58-9.14c1.74-2.74,4.76-4.41,8.01-4.41h12.28l-2.93-7.03h-40.7
			c-5.25,0-9.5-4.25-9.5-9.5c0-5.24,4.25-9.5,9.5-9.5h47.02c3.84,0,7.29,2.31,8.77,5.84l8.43,20.19h14.98l-4.41-2.14
			c-4.72-2.29-6.68-7.98-4.39-12.69c6.99-14.4,19.17-25.21,34.29-30.44c13.64-4.72,28.2-4.37,41.48,0.86l1.48-2.59
			c1.82-3.19,5.88-4.3,9.07-2.47c3.19,1.82,4.3,5.88,2.48,9.07L219.347,12.402z M225.637,70.792c1.84-8.32,0.98-16.88-2.19-24.52
			c-0.66,6.76-2.44,13.88-5.22,20.92L225.637,70.792z M206.217,61.362c3.04-8.04,4.54-16.19,4.18-23.09
			c-0.16-2.95-0.64-5.55-1.41-7.74l-14.39,25.18L206.217,61.362z M182.607,49.892l15.25-26.68c-7.44,1.28-17.32,8.95-25.08,21.9
			L182.607,49.892z M184.427,172.422c0-5.25-1.1-10.62-3.33-16.24h-82.63c-2.24,5.62-3.34,10.99-3.34,16.24
			c0,24.62,20.03,44.65,44.65,44.65S184.427,197.042,184.427,172.422z M173.097,69.602h-39.53l28.22,67.58h10.35
			C162.817,112.002,168.197,85.252,173.097,69.602z M160.787,39.282c3.69-6.32,7.95-11.82,12.49-16.29
			c-7.41,2.36-14.14,6.81-19.23,13.02L160.787,39.282z M141.197,137.182l-28.22-67.58h-6.51c4.9,15.65,10.28,42.4,0.96,67.58
			H141.197z"/>
	</g>
	<g>
	</g>
</g>
<g>
</g>
<g>
</g>
<g>
</g>
<g>
</g>
<g>
</g>
<g>
</g>
<g>
</g>
<g>
</g>
<g>
</g>
<g>
</g>
<g>
</g>
<g>
</g>
<g>
</g>
<g>
</g>
<g>
</g>
</svg>
