<?xml version="1.0" encoding="iso-8859-1"?>
<!-- Generator: Adobe Illustrator 19.1.0, SVG Export Plug-In . SVG Version: 6.00 Build 0)  -->
<svg version="1.1" id="Capa_1" xmlns="http://www.w3.org/2000/svg" xmlns:xlink="http://www.w3.org/1999/xlink" x="0px" y="0px"
	 viewBox="0 0 428.25 428.25" style="enable-background:new 0 0 428.25 428.25;" xml:space="preserve">
<path style="fill:#F24646;" d="M267.479,231.327c8.119-10.245,23.322-32.411,31.643-44.59
	c-12.259-15.389-9.072-27.024-23.667-41.613c-3.03-3.029-24.628-18.302-23-22c-1.338-1.217-5.371,15.195-6.695,13.964
	c-0.707-0.368-1.385-0.815-2.01-1.365c-2.245-1.979-4.506-3.926-6.773-5.857c-1.514,0.625,6.149-4.748,4.531-4.898
	c-2.055-0.19-5.219-6.193-6.887-7.662c-2.223-1.959-12.615-1.77-14.859-3.682c-10.505,7.242-20.616,23.18-29.526,30.239
	c-19.322,15.306-36.508,36.276-54.703,58.477c-3.149,3.843-6.34,7.735-9.57,11.63c12.55,15.926,26.521,31.605,41.613,46.699
	c11.111,11.11,22.54,21.605,34.148,31.379c2.254-1.854,4.502-3.698,6.731-5.525C230.864,268.164,252.031,250.823,267.479,231.327z"
	/>
<polyline style="fill:#4C2217;" points="257.455,131.457 275.455,148.457 276.122,137.088 256.455,129.957 "/>
<path style="fill:#4C2217;" d="M0.68,299.297c-0.02,0.116-0.065,0.478-0.015,1.137c0.2-0.785,0.445-1.549,0.735-2.293
	C1.16,298.526,0.905,298.905,0.68,299.297z"/>
<path style="fill:#4C2217;" d="M136.968,364.265c10.718-16.867,22.866-35.983,41.052-52.127c0.996-0.885,9.429-6.467,10.436-7.347
	c-15.595-12.487-23.88-30.553-38.667-45.333c-10.283-10.281-27.121-23.951-36.333-34.667
	c-15.072,15.605-39.662,38.652-54.969,48.376c-16.824,10.688-31.36,19.922-38.435,32.205c-0.107,0.613-0.923,8.199,15.781,30.522
	c10.248,13.696,22.358,26.56,26.158,30.36c3.801,3.801,16.664,15.91,30.36,26.158c5.529,4.137,10.152,7.197,13.991,9.462
	C117.816,394.383,126.734,380.369,136.968,364.265z M60.756,337.082c-2.745,0-5.478-1.123-7.453-3.329
	c-3.684-4.115-3.335-10.438,0.779-14.121l45.76-40.971c4.118-3.686,10.438-3.334,14.121,0.779
	c3.684,4.115,3.335,10.438-0.779,14.121l-45.76,40.971C65.515,336.241,63.131,337.082,60.756,337.082z M101.16,377.493
	c-2.374,0-4.758-0.841-6.667-2.55c-4.114-3.684-4.463-10.006-0.779-14.121l40.971-45.76c3.684-4.112,10.005-4.464,14.121-0.779
	c4.114,3.684,4.463,10.006,0.779,14.121l-40.971,45.76C106.639,376.369,103.905,377.493,101.16,377.493z"/>
<path style="fill:#4C2217;" d="M368.631,112.632c1.09,0.303,2.919-0.761,3.656-1.232c9.556-6.113,19.175-25.868,20.208-31.035
	c-0.213-5.057-8.489-22.31-27.602-41.416c-7.868-7.866-15.419-13.891-21.937-18.279c-1.292-0.414-2.341-0.635-3.106-0.668
	c-5.122,1.025-24.7,10.555-30.759,20.023c-0.467,0.728-1.521,2.541-1.221,3.622c4.357,15.742-16.549,30.546-64.253,62.53
	c-0.703,0.471-1.405,0.941-2.109,1.414c5.19,4.238,10.364,8.629,15.469,13.129c3.403,3.001-0.115,3.609-3.483,6.048
	c-0.879,0.636-0.731,1.993,0.268,2.417c4.001,1.695,10.546,6.689,12.36,8.502c1.854,1.853,3.689,3.717,5.51,5.588
	c3.722-1.791,8.319-1.154,11.405,1.931c8.962,8.962,17.545,18.143,25.702,27.459C338.813,127.933,353.282,108.385,368.631,112.632z
	 M323.087,85.311c-3.905-3.905-3.905-10.237,0-14.143c3.906-3.904,10.236-3.904,14.143,0l19.848,19.848
	c3.905,3.905,3.905,10.237,0,14.143c-1.953,1.952-4.512,2.929-7.071,2.929s-5.118-0.977-7.071-2.929L323.087,85.311z"/>
<g>
	<path d="M395.038,33.208c-16.783-16.783-40.591-33.556-55.934-33.202c-8.682,0.2-34.608,12.598-45.387,27.108
		c-5.958,8.021-6.461,15.082-5.541,20.049c-1.02,1.663-4.565,6.084-16.709,15.315c-10.559,8.026-24.367,17.285-38.987,27.087
		c-4.449,2.983-8.935,5.99-13.402,9.012c-0.06,0.039-0.118,0.079-0.177,0.119c-14.47,9.787-28.756,19.724-41.085,29.489
		c-21.007,16.643-39.688,39.436-57.752,61.478c-8.071,9.849-16.417,20.031-24.872,29.553
		c-14.137,15.919-31.062,26.671-47.431,37.069c-18.32,11.639-35.626,22.633-45.135,39.269c-0.476,0.832-0.88,1.697-1.227,2.587
		c-0.29,0.744-0.535,1.508-0.735,2.293c-2.752,10.806,3.065,25.569,17.948,45.815c13.471,18.326,29.08,33.992,29.236,34.148
		c0.156,0.156,15.822,15.766,34.148,29.236c17.015,12.506,30.156,18.616,40.333,18.616c3.864,0,7.304-0.883,10.361-2.631
		c16.637-9.509,27.631-26.814,39.27-45.135c10.398-16.368,21.15-33.294,37.069-47.431c3.831-3.402,7.77-6.786,11.749-10.142
		c0.115-0.093,0.229-0.189,0.34-0.286c5.803-4.887,11.69-9.713,17.464-14.444c22.042-18.064,44.835-36.745,61.478-57.752
		c12.834-16.202,25.954-35.771,38.643-54.694c9.798-14.614,19.053-28.418,27.074-38.97c9.225-12.134,13.643-15.677,15.306-16.696
		c4.964,0.92,12.027,0.417,20.049-5.541c14.511-10.778,26.908-36.705,27.108-45.386C428.597,73.795,411.821,49.99,395.038,33.208z
		 M195.751,318.098c-18.018,16-30.053,34.945-40.672,51.661c-10.688,16.824-19.922,31.36-32.205,38.435
		c-0.458,0.086-4.871,0.561-16.531-6.319c-3.839-2.265-8.462-5.325-13.991-9.462c-13.696-10.248-26.56-22.357-30.36-26.158
		c-3.801-3.801-15.91-16.664-26.158-30.36c-16.704-22.323-15.888-29.909-15.781-30.522c7.074-12.283,21.61-21.517,38.435-32.205
		c15.307-9.724,32.476-20.65,47.548-36.254c1.388-1.437,2.764-2.898,4.113-4.417c0.877-0.987,1.752-1.98,2.624-2.978
		c12.376,15.451,26.016,30.646,40.662,45.295c14.649,14.648,29.844,28.287,45.295,40.662
		C197.731,316.346,196.738,317.221,195.751,318.098z M388.221,119.154c-0.73,0.467-2.542,1.521-3.622,1.221
		c-15.737-4.356-30.537,16.539-62.508,64.223c-0.478,0.713-0.955,1.426-1.435,2.14c-3.854-4.72-7.835-9.412-11.915-14.071
		c-8.157-9.316-16.739-18.497-25.702-27.459c-3.087-3.085-7.684-3.722-11.405-1.931c-0.988,0.476-1.918,1.112-2.737,1.931
		c-3.905,3.905-3.905,10.237,0,14.143c14.46,14.459,27.907,29.48,40.053,44.73c-8.243,12.07-16.522,23.776-24.566,33.93
		c-15.306,19.322-36.276,36.508-58.477,54.703c-3.843,3.149-7.735,6.34-11.63,9.57c-4.203-3.312-8.388-6.73-12.551-10.234
		c-11.609-9.774-23.038-20.268-34.148-31.379c-15.093-15.094-29.063-30.773-41.613-46.699c3.23-3.895,6.421-7.787,9.57-11.63
		c18.195-22.201,35.381-43.172,54.703-58.477c8.91-7.059,19.022-14.302,29.526-21.544c1.462-1.007,2.93-2.015,4.404-3.022
		c4.281,3.41,8.56,6.948,12.811,10.568c2.267,1.931,4.528,3.878,6.773,5.857c0.625,0.551,1.303,0.998,2.01,1.365
		c1.771,0.921,3.742,1.271,5.664,1.066c2.401-0.256,4.717-1.365,6.44-3.319c0.011-0.012,0.019-0.025,0.03-0.038
		c3.618-4.143,3.213-10.435-0.918-14.077c-5.105-4.5-10.278-8.891-15.469-13.129c0.704-0.473,1.406-0.943,2.109-1.414
		c47.704-31.984,68.61-46.788,64.253-62.53c-0.3-1.081,0.754-2.894,1.221-3.622c6.059-9.468,25.637-18.997,30.759-20.023
		c0.765,0.032,1.815,0.253,3.106,0.668c7.17,2.3,21.894,10.634,37.939,26.68c18.937,18.935,27.136,36.034,27.347,41.046
		C407.218,93.517,397.688,113.095,388.221,119.154z"/>
	<path d="M148.806,314.283c-4.116-3.685-10.438-3.333-14.121,0.779l-40.971,45.76c-3.684,4.115-3.335,10.438,0.779,14.121
		c1.909,1.709,4.293,2.55,6.667,2.55c2.745,0,5.479-1.124,7.454-3.329l40.971-45.76C153.269,324.289,152.92,317.966,148.806,314.283
		z"/>
	<path d="M113.963,279.44c-3.684-4.113-10.003-4.466-14.121-0.779l-45.76,40.971c-4.114,3.684-4.463,10.006-0.779,14.121
		c1.976,2.206,4.708,3.329,7.453,3.329c2.375,0,4.759-0.841,6.668-2.55l45.76-40.971
		C117.298,289.878,117.646,283.555,113.963,279.44z"/>
	<path d="M357.077,105.159c3.905-3.905,3.905-10.237,0-14.143l-19.848-19.848c-3.906-3.904-10.236-3.904-14.143,0
		c-3.905,3.905-3.905,10.237,0,14.143l19.848,19.848c1.953,1.952,4.512,2.929,7.071,2.929S355.124,107.111,357.077,105.159z"/>
</g>
<g>
</g>
<g>
</g>
<g>
</g>
<g>
</g>
<g>
</g>
<g>
</g>
<g>
</g>
<g>
</g>
<g>
</g>
<g>
</g>
<g>
</g>
<g>
</g>
<g>
</g>
<g>
</g>
<g>
</g>
</svg>
