<?xml version="1.0" encoding="iso-8859-1"?>
<!-- Generator: Adobe Illustrator 19.1.0, SVG Export Plug-In . SVG Version: 6.00 Build 0)  -->
<svg version="1.1" id="Capa_1" xmlns="http://www.w3.org/2000/svg" xmlns:xlink="http://www.w3.org/1999/xlink" x="0px" y="0px"
	 viewBox="0 0 65.043 65.043" style="enable-background:new 0 0 65.043 65.043;" xml:space="preserve">
<g>
	<g id="group-70svg">
		<path id="path-1_66_" style="fill:#EDC951;" d="M56.799,34.043h-4.777v-4c0-11-46-11-46,0v19.431
			c0,8.089,9.205,15.569,18.688,15.569h11.589c6.315,0,11.861-4,14.864-8h5.636c4.537,0,7.223-4.315,7.223-9.438v-4.98
			C64.021,37.502,61.335,34.043,56.799,34.043z"/>
		<path id="path-2_66_" style="fill:#99746A;" d="M12.442,31.286c2.176,7.498,33.542,7.498,35.717,0
			C45.985,23.788,14.618,23.788,12.442,31.286z"/>
		<path id="path-3_66_" d="M32.299,63.043H20.709c-10.488,0-19.688-7.743-19.688-16.569V26.543c0-7.196,13.198-9.75,24.5-9.75
			s24.5,2.554,24.5,9.75v2.5h2.777c5.258,0,9.223,4.549,9.223,10.582v4.981c0,6.048-3.879,10.437-9.223,10.437h-4.905
			C44.675,59.017,39.042,63.043,32.299,63.043z M25.521,19.793c-12.056,0-21.5,2.965-21.5,6.75v19.931
			c0,7.101,7.954,13.569,16.688,13.569h11.589c5.985,0,11.101-3.986,13.664-7.4l0.45-0.6h6.386c3.664,0,6.223-3.058,6.223-7.437
			v-4.981c0-4.392-2.617-7.582-6.223-7.582h-5.777v-5.5C47.021,22.758,37.577,19.793,25.521,19.793z"/>
		<path id="path-4_66_" d="M47.021,50.464V34.043h4.741c2.962,0,5.259,3.485,5.259,6.483v3.998c0,3.159-2.525,5.93-5.405,5.93
			L47.021,50.464z M50.021,37.043v10.415l1.592-0.004c1.086,0,2.408-1.352,2.408-2.93v-3.998c0-1.728-1.315-3.483-2.259-3.483
			H50.021z"/>
		<path id="path-5_66_" d="M26.3,35.409c-8.388,0-17.864-1.76-19.299-6.705L6.88,28.286l0.121-0.418
			c1.435-4.944,10.911-6.705,19.299-6.705c8.39,0,17.866,1.761,19.299,6.705l0.121,0.418l-0.121,0.418
			C44.167,33.649,34.69,35.409,26.3,35.409z M10.069,28.286c1.262,2.093,7.369,4.123,16.231,4.123c8.863,0,14.97-2.03,16.232-4.123
			c-1.262-2.092-7.369-4.123-16.232-4.123C17.438,24.163,11.331,26.194,10.069,28.286z"/>
		<path id="path-6_59_" d="M34.366,30.029c-0.648,0-1.244-0.422-1.438-1.075C32.251,26.67,26.521,6.467,33.37,0.379
			c0.618-0.551,1.568-0.494,2.117,0.124c0.551,0.62,0.494,1.568-0.125,2.118c-4.608,4.095-1.243,19.783,0.442,25.482
			c0.235,0.795-0.219,1.629-1.013,1.864C34.649,30.009,34.507,30.029,34.366,30.029z"/>
		<path id="path-7_50_" d="M16.417,30.029c-0.647,0-1.244-0.422-1.437-1.075C14.304,26.67,8.574,6.467,15.422,0.379
			c0.619-0.551,1.568-0.494,2.118,0.124c0.55,0.62,0.495,1.568-0.125,2.118c-4.607,4.095-1.243,19.783,0.442,25.483
			c0.234,0.794-0.219,1.628-1.013,1.863C16.702,30.009,16.559,30.029,16.417,30.029z"/>
		<path id="path-8_41_" d="M25.92,30.029c-0.615,0-1.192-0.381-1.412-0.995C23.821,27.116,18,10.153,25.032,4.987
			c0.668-0.491,1.605-0.347,2.096,0.32c0.491,0.668,0.347,1.607-0.321,2.097c-4.428,3.252-1.018,16.303,0.525,20.62
			c0.279,0.779-0.127,1.637-0.907,1.917C26.257,30,26.087,30.029,25.92,30.029z"/>
	</g>
</g>
<g>
</g>
<g>
</g>
<g>
</g>
<g>
</g>
<g>
</g>
<g>
</g>
<g>
</g>
<g>
</g>
<g>
</g>
<g>
</g>
<g>
</g>
<g>
</g>
<g>
</g>
<g>
</g>
<g>
</g>
</svg>
