<?xml version="1.0" encoding="iso-8859-1"?>
<!-- Generator: Adobe Illustrator 19.0.0, SVG Export Plug-In . SVG Version: 6.00 Build 0)  -->
<svg version="1.1" id="Layer_1" xmlns="http://www.w3.org/2000/svg" xmlns:xlink="http://www.w3.org/1999/xlink" x="0px" y="0px"
	 viewBox="0 0 455 455" style="enable-background:new 0 0 455 455;" xml:space="preserve">
<g>
	<path d="M227.5,237.355c-36.364,0-65.948,29.584-65.948,65.948s29.584,65.948,65.948,65.948c36.363,0,65.947-29.584,65.947-65.948
		S263.863,237.355,227.5,237.355z M227.5,328.303c-13.807,0-25-11.193-25-25s11.193-25,25-25s25,11.193,25,25
		S241.307,328.303,227.5,328.303z"/>
	<path d="M75.803,0v455h303.394V0H75.803z M227.5,55.75c30.563,0,55.429,24.865,55.429,55.428s-24.865,55.428-55.429,55.428
		c-30.563,0-55.428-24.865-55.428-55.428S196.937,55.75,227.5,55.75z M227.5,399.25c-52.906,0-95.948-43.042-95.948-95.948
		s43.042-95.948,95.948-95.948c52.905,0,95.947,43.042,95.947,95.948S280.405,399.25,227.5,399.25z"/>
	<path d="M227.5,136.606c14.021,0,25.429-11.407,25.429-25.428S241.521,85.75,227.5,85.75c-14.021,0-25.428,11.407-25.428,25.428
		S213.479,136.606,227.5,136.606z"/>
</g>
<g>
</g>
<g>
</g>
<g>
</g>
<g>
</g>
<g>
</g>
<g>
</g>
<g>
</g>
<g>
</g>
<g>
</g>
<g>
</g>
<g>
</g>
<g>
</g>
<g>
</g>
<g>
</g>
<g>
</g>
</svg>
