<?xml version="1.0" encoding="iso-8859-1"?>
<!-- Generator: Adobe Illustrator 16.0.0, SVG Export Plug-In . SVG Version: 6.00 Build 0)  -->
<!DOCTYPE svg PUBLIC "-//W3C//DTD SVG 1.1//EN" "http://www.w3.org/Graphics/SVG/1.1/DTD/svg11.dtd">
<svg version="1.1" id="Capa_1" xmlns="http://www.w3.org/2000/svg" xmlns:xlink="http://www.w3.org/1999/xlink" x="0px" y="0px"
	 width="45.58px" height="45.579px" viewBox="0 0 45.58 45.579" style="enable-background:new 0 0 45.58 45.579;"
	 xml:space="preserve">
<g>
	<g>
		<path d="M29.032,18.958L39.32,4.751c0.967-1.346,0.659-3.22-0.687-4.187c-1.347-0.968-3.222-0.659-4.188,0.687L24.258,15.524
			c-1.11-0.692-2.372-1.076-3.69-1.076c-1.78,0-3.479,0.669-4.781,1.883L2.953,28.297c-0.873,0.815-1.187,2.072-0.799,3.201
			c0.389,1.131,1.409,1.93,2.6,2.033l3.191,0.299l1.993,5.033c0.352,0.889,1.112,1.566,2.035,1.813l5.042,1.354l1.153,1.945
			c0.542,0.916,1.541,1.484,2.606,1.484l0.166-0.004c1.132-0.062,2.126-0.742,2.594-1.774l7.45-16.436
			C32.297,24.355,31.459,20.953,29.032,18.958z M8.334,30.847c-0.051-0.008-3.335-0.355-3.335-0.355l7.405-6.904l1.881,1.352
			L8.334,30.847z M16.547,38.79l-3.818-1.029l-1.994-5.034c-0.003-0.009-0.008-0.017-0.012-0.024l6.033-5.989l3.979,2.858
			L16.547,38.79z M20.937,42.38c0,0-1.47-2.075-1.592-2.215l3.912-8.754l2.024,1.608L20.937,42.38z M28.253,26.012l-1.806,3.972
			l-11.807-8.482l3.19-2.975c0.745-0.694,1.717-1.077,2.735-1.077c0.843,0,1.651,0.261,2.337,0.754l4.036,2.897
			C28.488,22.211,29.039,24.276,28.253,26.012z"/>
		<circle cx="31.504" cy="41.996" r="3.583"/>
		<circle cx="38.064" cy="40.27" r="1.857"/>
		<circle cx="42.422" cy="43.293" r="1.167"/>
	</g>
</g>
<g>
</g>
<g>
</g>
<g>
</g>
<g>
</g>
<g>
</g>
<g>
</g>
<g>
</g>
<g>
</g>
<g>
</g>
<g>
</g>
<g>
</g>
<g>
</g>
<g>
</g>
<g>
</g>
<g>
</g>
</svg>
