<?xml version="1.0" encoding="iso-8859-1"?>
<!-- Generator: Adobe Illustrator 17.1.0, SVG Export Plug-In . SVG Version: 6.00 Build 0)  -->
<!DOCTYPE svg PUBLIC "-//W3C//DTD SVG 1.1//EN" "http://www.w3.org/Graphics/SVG/1.1/DTD/svg11.dtd">
<svg version="1.1" id="Capa_1" xmlns="http://www.w3.org/2000/svg" xmlns:xlink="http://www.w3.org/1999/xlink" x="0px" y="0px"
	 viewBox="0 0 412.194 412.194" style="enable-background:new 0 0 412.194 412.194;" xml:space="preserve">
<g>
	<path style="fill:#F7CF40;" d="M52.622,84.691c6.728,25.577,27.938,46.772,132.56,151.3c7.583,7.576,15.596,15.582,24.066,24.052
		c45.508,45.507,111.898,59.196,176.865,67.21c1.698,0.209,3.344,0.33,4.943,0.377c-1.528-3.997-4.553-7.549-8.829-10.055
		c-44.876-26.295-67.442-49.258-86.049-87.116h-23.288c-5.523,0-10-4.478-10-10c0-5.523,4.477-10,10-10h14.338
		c-2.107-5.121-4.202-10.495-6.314-16.148h-23.024c-5.523,0-10-4.478-10-10c0-5.522,4.478-10,10-10h15.854
		c-4.994-14.422-10.254-30.475-16.144-48.538c-4.935,2.123-10.729,7.487-12.239,20.83c-0.372,3.289-2.348,6.181-5.275,7.724
		c-6.756,3.559-14.251,5.363-22.277,5.363c-36.331,0-77.789-37.727-90.585-71.459c-8.921-23.518-0.272-35.876,5.678-41.149
		c5.915-5.242,8.153-10.816,6.303-15.694c-1.712-4.514-6.56-7.79-11.526-7.79c-2.148,0-4.23,0.603-6.187,1.79
		C102.901,36.672,74.241,61.441,52.622,84.691z"/>
	<path style="fill:#6ECCAE;" d="M106.284,207.139c0.006,0.006,0.012,0.011,0.018,0.016c0.006,0.006,0.01,0.012,0.016,0.018
		c8.298,8.287,17.505,17.445,27.734,27.619c14.669,14.591,31.295,31.128,50.307,50.139c29.668,29.668,68.215,45.808,109.453,55.673
		c0.032,0.007,0.064,0.01,0.096,0.018c0.043,0.01,0.083,0.026,0.126,0.037c15.064,3.594,30.484,6.351,45.963,8.627
		c0.091,0.011,0.181,0.013,0.272,0.026c0.09,0.013,0.175,0.037,0.263,0.053c6.896,1.009,13.801,1.928,20.691,2.778
		c2.178,0.269,4.306,0.405,6.322,0.405c7.444,0,13.609-1.877,17.925-5.248c-0.601-0.06-1.202-0.121-1.808-0.196
		c-68.513-8.451-138.774-23.135-188.558-72.917c-8.468-8.468-16.479-16.472-24.06-24.046
		c-92.94-92.858-122.197-122.09-133.526-147.928c-3.058,3.902-5.738,7.626-7.933,11.08c3.842,15.684,12.436,28.097,42.937,59.693
		c0.046,0.046,0.096,0.086,0.142,0.133c0.042,0.044,0.077,0.091,0.118,0.135C81.869,182.659,92.883,193.757,106.284,207.139z"/>
	<polygon style="fill:#FFEBD4;" points="20,210.828 20,388.596 197.75,388.578 	"/>
	<path d="M20.325,142.288c-2.145,3.369-2.147,7.842,0.348,11.264c1.958,2.684,5.001,4.107,8.087,4.107
		c0.857,0,1.716-0.117,2.557-0.34c5.377,6.57,12.101,14.052,20.564,22.988c-1.57,3.597-0.932,7.939,1.961,10.941
		c1.963,2.038,4.581,3.063,7.203,3.063c1.243,0,2.487-0.231,3.663-0.693c6.22,6.367,13.165,13.375,20.929,21.155
		c-1.492,3.623-0.768,7.943,2.177,10.886c1.953,1.95,4.51,2.926,7.068,2.926c1.3,0,2.6-0.255,3.82-0.759
		c6.494,6.474,13.468,13.412,20.979,20.882c-1.483,3.625-0.749,7.942,2.201,10.878c1.951,1.941,4.502,2.911,7.053,2.911
		c1.306,0,2.611-0.257,3.837-0.766c6.607,6.574,13.574,13.513,20.938,20.858c-1.492,3.625-0.766,7.947,2.181,10.888
		c1.952,1.948,4.508,2.922,7.064,2.922c1.302,0,2.603-0.255,3.825-0.761c1.137,1.136,2.282,2.281,3.436,3.435
		c6.333,6.333,13.001,12.092,19.95,17.348c-0.926,3.9,0.553,8.14,4.053,10.548c1.731,1.192,3.705,1.763,5.659,1.763
		c2.005,0,3.988-0.605,5.666-1.756c8.959,5.565,18.296,10.434,27.926,14.718c-0.043,4.004,2.329,7.809,6.267,9.39
		c1.222,0.49,2.482,0.723,3.722,0.723c2.745,0,5.372-1.16,7.258-3.157c9.653,3.525,19.537,6.554,29.575,9.193
		c0.601,3.902,3.491,7.243,7.569,8.213c0.778,0.185,1.555,0.272,2.321,0.272c3.242,0,6.261-1.594,8.118-4.185
		c9.89,2.141,19.881,3.971,29.907,5.571c0.96,3.799,4.114,6.838,8.232,7.448c0.497,0.073,0.989,0.108,1.478,0.108
		c3.559,0,6.789-1.908,8.563-4.869c4.101,0.555,8.2,1.084,12.293,1.589c2.988,0.368,5.94,0.556,8.772,0.556
		c26.135,0,39.525-15.027,43.342-29.091c4.52-16.651-2.936-33.986-18.551-43.137c-41.655-24.409-62.117-45.129-79.634-81.765
		c-0.317-1.64-1.032-3.136-2.044-4.384c-11.195-24.51-21.458-55.986-35.721-99.741l-1.01-3.099
		c-1.268-3.889-4.901-6.621-8.982-6.887c0,0-0.331-0.021-0.944-0.021c-3.293,0-30.917,1.003-37.59,34.011
		c-2.688,0.836-5.566,1.257-8.603,1.257c-26.752,0-61.887-32.195-71.886-58.553c-2.001-5.274-4.63-14.769,0.243-19.087
		c12.213-10.823,16.601-24.938,11.738-37.757c-4.623-12.186-17.052-20.696-30.226-20.696c-5.778,0-11.506,1.623-16.565,4.694
		C84.272,24.584,28.886,74.122,10.289,106.559c-1.198,2.09-1.601,4.542-1.136,6.905C11.2,123.865,14.096,132.344,20.325,142.288z
		 M139.203,31.387c1.851,4.879-0.388,10.452-6.303,15.694c-5.95,5.273-14.6,17.632-5.678,41.149
		c12.796,33.732,54.255,71.459,90.585,71.459c8.026,0,15.521-1.805,22.277-5.363c2.928-1.543,4.903-4.435,5.275-7.724
		c1.51-13.343,7.305-18.707,12.239-20.83c5.89,18.063,11.15,34.116,16.144,48.538h-15.854c-5.523,0-10,4.478-10,10
		c0,5.522,4.478,10,10,10h23.024c2.111,5.653,4.206,11.027,6.314,16.148h-14.338c-5.523,0-10,4.477-10,10c0,5.522,4.477,10,10,10
		h23.288c18.606,37.858,41.173,60.821,86.049,87.116c4.276,2.506,7.301,6.058,8.829,10.055c-1.599-0.047-3.245-0.168-4.943-0.377
		c-64.967-8.014-131.357-21.703-176.865-67.21c-8.47-8.47-16.483-16.476-24.066-24.052C80.56,131.463,59.35,110.269,52.622,84.691
		c21.619-23.251,50.279-48.02,68.868-59.304c1.957-1.188,4.039-1.79,6.187-1.79C132.643,23.597,137.491,26.873,139.203,31.387z
		 M72.523,172.985c-30.501-31.596-39.095-44.009-42.937-59.693c2.195-3.454,4.875-7.178,7.933-11.08
		c11.33,25.838,40.586,55.07,133.526,147.928c7.581,7.574,15.592,15.578,24.06,24.046c49.784,49.782,120.045,64.466,188.558,72.917
		c0.606,0.075,1.208,0.137,1.808,0.196c-4.317,3.371-10.481,5.248-17.925,5.248c-2.017,0-4.145-0.137-6.322-0.405
		c-6.89-0.85-13.795-1.77-20.691-2.778c-0.089-0.016-0.174-0.039-0.263-0.053c-0.091-0.013-0.181-0.015-0.272-0.026
		c-15.478-2.276-30.899-5.032-45.963-8.627c-0.043-0.011-0.083-0.026-0.126-0.037c-0.032-0.008-0.064-0.011-0.096-0.018
		c-41.238-9.865-79.785-26.005-109.453-55.673c-19.011-19.011-35.637-35.548-50.307-50.139
		c-10.229-10.174-19.437-19.332-27.734-27.619c-0.006-0.006-0.01-0.012-0.016-0.018c-0.006-0.006-0.012-0.011-0.018-0.016
		c-13.4-13.382-24.415-24.48-33.501-33.886c-0.041-0.044-0.076-0.092-0.118-0.135C72.62,173.07,72.57,173.031,72.523,172.985z"/>
	<path d="M402.009,388.559l-175.977,0.018L17.071,179.616c-2.86-2.859-7.161-3.714-10.897-2.168C2.436,178.995,0,182.642,0,186.687
		v211.91c0,2.652,1.054,5.196,2.929,7.071c1.875,1.876,4.419,2.929,7.072,2.929l392.01-0.038c5.523-0.001,10-4.479,9.999-10.001
		C412.009,393.035,407.531,388.558,402.009,388.559z M20,210.828l177.75,177.75L20,388.596V210.828z"/>
</g>
<g>
</g>
<g>
</g>
<g>
</g>
<g>
</g>
<g>
</g>
<g>
</g>
<g>
</g>
<g>
</g>
<g>
</g>
<g>
</g>
<g>
</g>
<g>
</g>
<g>
</g>
<g>
</g>
<g>
</g>
</svg>
