<?xml version="1.0" encoding="iso-8859-1"?>
<!-- Generator: Adobe Illustrator 19.0.0, SVG Export Plug-In . SVG Version: 6.00 Build 0)  -->
<svg version="1.1" id="Layer_1" xmlns="http://www.w3.org/2000/svg" xmlns:xlink="http://www.w3.org/1999/xlink" x="0px" y="0px"
	 viewBox="0 0 436 436" style="enable-background:new 0 0 436 436;" xml:space="preserve">
<g>
	<path style="fill:#F5C525;" d="M428.003,218l-44.23-37.856l23.464-53.292l-56.312-14.833l-1.978-58.198l-57.183,10.964
		l-27.038-51.563l-46.729,34.781L171.274,13.22l-27.037,51.573L87.052,53.82l-1.981,58.193L28.763,126.85l23.464,53.292L7.997,218
		l44.231,37.857l-23.464,53.292l56.311,14.833l1.978,58.198l57.093-10.956c0.065-0.012,0.104-0.016,0.09-0.009l27.039,51.564
		l46.719-34.782l46.733,34.781l27.035-51.572l57.186,10.973l1.98-58.194l56.309-14.836l-23.464-53.292L428.003,218z M358,218
		c0,77.196-62.804,140-140,140S78,295.196,78,218S140.804,78,218,78S358,140.803,358,218z"/>
	<path style="fill:#F8A805;" d="M218,78c-77.196,0-140,62.804-140,140s62.804,140,140,140s140-62.804,140-140S295.196,78,218,78z"/>
	<g>
		<path d="M218,70c-81.61,0-148,66.39-148,148s66.39,148,148,148s148-66.39,148-148S299.61,70,218,70z M218,350
			c-72.79,0-132-59.21-132-132S145.21,86,218,86c72.78,0,132,59.21,132,132S290.78,350,218,350z"/>
		<path d="M433.2,211.92l-39.71-33.99l21.07-47.85c0.94-2.14,0.9-4.59-0.12-6.7c-1.01-2.11-2.9-3.66-5.16-4.26l-50.56-13.33
			l-1.78-52.25c-0.08-2.33-1.18-4.52-3.01-5.98c-1.82-1.46-4.2-2.04-6.49-1.6l-51.35,9.85l-24.28-46.3
			c-1.09-2.08-3.03-3.57-5.31-4.09s-4.68-0.01-6.56,1.38L218,38.03L176.05,6.8c-1.88-1.39-4.27-1.9-6.55-1.38s-4.22,2.01-5.31,4.09
			l-24.28,46.3l-51.35-9.85c-2.3-0.44-4.67,0.14-6.5,1.6c-1.82,1.46-2.92,3.65-3,5.98l-1.78,52.25l-50.56,13.33
			c-2.26,0.6-4.15,2.15-5.17,4.26c-1.01,2.11-1.05,4.56-0.11,6.7l21.07,47.85L2.8,211.92C1.02,213.44,0,215.66,0,218
			s1.02,4.56,2.8,6.08l39.71,33.99l-21.07,47.85c-0.95,2.14-0.9,4.59,0.11,6.7c1.02,2.11,2.91,3.66,5.17,4.26l50.56,13.33
			l1.78,52.25c0.08,2.33,1.17,4.52,3,5.98c1.83,1.46,4.21,2.04,6.5,1.6l51.35-9.85l24.28,46.3c1.09,2.08,3.03,3.57,5.31,4.09
			s4.67,0.01,6.55-1.38L218,397.97l41.94,31.23c1.4,1.03,3.08,1.58,4.78,1.58c0.59,0,1.19-0.07,1.78-0.2
			c2.28-0.52,4.22-2.01,5.31-4.09l24.28-46.3l51.34,9.85c2.3,0.44,4.68-0.14,6.5-1.6c1.83-1.46,2.93-3.65,3.01-5.98l1.78-52.25
			l50.55-13.33c2.27-0.6,4.16-2.15,5.17-4.26c1.02-2.11,1.06-4.56,0.12-6.7l-21.07-47.85l39.71-33.99c1.78-1.52,2.8-3.74,2.8-6.08
			S434.98,213.44,433.2,211.92z M378.57,249.78c-2.68,2.29-3.54,6.07-2.12,9.3l19.69,44.72l-47.25,12.45
			c-3.42,0.9-5.84,3.93-5.96,7.46l-1.66,48.85l-48-9.21c-3.46-0.66-6.95,1.02-8.59,4.15l-22.69,43.27l-39.22-29.19
			c-2.83-2.11-6.71-2.11-9.55,0l-39.21,29.19l-22.69-43.27c-1.4-2.67-4.15-4.29-7.08-4.29c-0.5,0-1.01,0.05-1.51,0.14l-48,9.21
			l-1.66-48.85c-0.12-3.53-2.54-6.56-5.96-7.46L39.86,303.8l19.69-44.72c1.42-3.23,0.56-7.01-2.12-9.3L20.3,218l37.13-31.78
			c2.68-2.29,3.54-6.07,2.12-9.3L39.86,132.2l47.25-12.45c3.42-0.9,5.84-3.93,5.96-7.46l1.66-48.85l48,9.21
			c3.46,0.66,6.95-1.02,8.59-4.15l22.69-43.27l39.21,29.19c2.84,2.11,6.72,2.11,9.55,0l39.22-29.19l22.69,43.27
			c1.64,3.13,5.13,4.81,8.59,4.15l48-9.21l1.66,48.85c0.12,3.53,2.54,6.56,5.96,7.46l47.25,12.45l-19.69,44.72
			c-1.42,3.23-0.56,7.01,2.12,9.3L415.7,218L378.57,249.78z"/>
	</g>
</g>
<g>
</g>
<g>
</g>
<g>
</g>
<g>
</g>
<g>
</g>
<g>
</g>
<g>
</g>
<g>
</g>
<g>
</g>
<g>
</g>
<g>
</g>
<g>
</g>
<g>
</g>
<g>
</g>
<g>
</g>
</svg>
