<?xml version="1.0" encoding="iso-8859-1"?>
<!-- Generator: Adobe Illustrator 19.0.0, SVG Export Plug-In . SVG Version: 6.00 Build 0)  -->
<svg version="1.1" id="Layer_1" xmlns="http://www.w3.org/2000/svg" xmlns:xlink="http://www.w3.org/1999/xlink" x="0px" y="0px"
	 viewBox="0 0 502 502" style="enable-background:new 0 0 502 502;" xml:space="preserve">
<g>
	<g>
		<path style="fill:#FBB03B;" d="M391.395,10h-280.79c-19.271,0-34.893,15.622-34.893,34.893v316.781h350.575V44.893
			C426.287,25.622,410.665,10,391.395,10z"/>
		<g>
			<rect x="113.627" y="48.464" style="fill:#29ABE2;" width="117.591" height="139.571"/>
			<rect x="270.782" y="48.464" style="fill:#29ABE2;" width="117.591" height="139.571"/>
		</g>
		<g>
			<circle style="fill:#CCCCCC;" cx="136.157" cy="295.029" r="22.529"/>
			<circle style="fill:#CCCCCC;" cx="365.844" cy="295.029" r="22.529"/>
		</g>
		<g>
			<polygon style="fill:#603813;" points="387.186,388.786 114.814,388.786 79.741,423.859 422.259,423.859 			"/>
			<polygon style="fill:#603813;" points="11.6,492 490.4,492 455.327,456.927 46.673,456.927 			"/>
		</g>
	</g>
	<g>
		<path d="M113.627,198.035h117.591c5.523,0,10-4.477,10-10V48.464c0-5.523-4.477-10-10-10H113.627c-5.523,0-10,4.477-10,10v139.57
			C103.627,193.558,108.104,198.035,113.627,198.035z M123.627,58.464h97.591v119.57h-97.591V58.464z"/>
		<path d="M388.373,38.464H270.782c-5.523,0-10,4.477-10,10v139.57c0,5.523,4.477,10,10,10h117.591c5.523,0,10-4.477,10-10V48.464
			C398.373,42.941,393.896,38.464,388.373,38.464z M378.373,178.035h-97.591V58.464h97.591V178.035z"/>
		<path d="M136.157,262.5c-17.937,0-32.529,14.593-32.529,32.529s14.593,32.529,32.529,32.529s32.529-14.592,32.529-32.529
			S154.093,262.5,136.157,262.5z M136.157,307.558c-6.909,0-12.529-5.621-12.529-12.529c0-6.909,5.621-12.529,12.529-12.529
			s12.529,5.621,12.529,12.529C148.686,301.938,143.065,307.558,136.157,307.558z"/>
		<path d="M365.843,262.5c-17.937,0-32.529,14.593-32.529,32.529s14.592,32.529,32.529,32.529s32.529-14.592,32.529-32.529
			S383.78,262.5,365.843,262.5z M365.843,307.558c-6.908,0-12.529-5.621-12.529-12.529c0-6.909,5.621-12.529,12.529-12.529
			c6.909,0,12.529,5.621,12.529,12.529C378.373,301.938,372.752,307.558,365.843,307.558z"/>
		<path d="M384.313,371.674h41.975c5.523,0,10-4.477,10-10V44.893C436.288,20.139,416.149,0,391.395,0h-280.79
			C85.851,0,65.712,20.139,65.712,44.893v316.781c0,5.523,4.477,10,10,10h41.975L4.529,484.929c-2.86,2.86-3.715,7.162-2.167,10.898
			C3.909,499.563,7.556,502,11.6,502h478.8c4.044,0,7.691-2.437,9.239-6.173s0.692-8.038-2.167-10.898L384.313,371.674z
			 M83.787,433.858h334.426l13.069,13.069H70.718L83.787,433.858z M398.117,413.858H103.883l15.073-15.073h264.088L398.117,413.858z
			 M85.712,44.893C85.712,31.167,96.879,20,110.605,20h280.79c13.726,0,24.893,11.167,24.893,24.893v306.781H85.712V44.893z
			 M356.028,371.674l7.112,7.112H138.86l7.112-7.112H356.028z M35.742,482l15.073-15.073h400.37L466.258,482H35.742z"/>
		<path d="M340,225.5c0-5.523-4.477-10-10-10H115c-5.523,0-10,4.477-10,10s4.477,10,10,10h215C335.523,235.5,340,231.023,340,225.5z
			"/>
		<path d="M386,235.5c5.523,0,10-4.477,10-10s-4.477-10-10-10h-22c-5.523,0-10,4.477-10,10s4.477,10,10,10H386z"/>
		<path d="M201,67.5h-57c-5.523,0-10,4.477-10,10s4.477,10,10,10h57c5.523,0,10-4.477,10-10S206.523,67.5,201,67.5z"/>
		<path d="M301,87.5h57c5.523,0,10-4.477,10-10s-4.477-10-10-10h-57c-5.523,0-10,4.477-10,10S295.477,87.5,301,87.5z"/>
	</g>
</g>
<g>
</g>
<g>
</g>
<g>
</g>
<g>
</g>
<g>
</g>
<g>
</g>
<g>
</g>
<g>
</g>
<g>
</g>
<g>
</g>
<g>
</g>
<g>
</g>
<g>
</g>
<g>
</g>
<g>
</g>
</svg>
