<?xml version="1.0" encoding="iso-8859-1"?>
<!-- Generator: Adobe Illustrator 19.1.0, SVG Export Plug-In . SVG Version: 6.00 Build 0)  -->
<svg version="1.1" id="Capa_1" xmlns="http://www.w3.org/2000/svg" xmlns:xlink="http://www.w3.org/1999/xlink" x="0px" y="0px"
	 viewBox="0 0 399.48 399.48" style="enable-background:new 0 0 399.48 399.48;" xml:space="preserve">
<g>
	<g id="XMLID_70_">
		<g>
			<path style="fill:#EFEF78;" d="M389.48,314.28v10.04c0,18.59-15.08,33.66-33.67,33.66h-7.5c-1.57-3.84-2.43-8.04-2.43-12.44
				c0-18.23,14.77-33,33-33C382.59,312.54,386.15,313.15,389.48,314.28z"/>
			<path style="fill:#CE8D51;" d="M141.54,86.5h116.39h97.88c18.59,0,33.67,15.07,33.67,33.66v194.12
				c-3.33-1.13-6.89-1.74-10.6-1.74c-18.23,0-33,14.77-33,33c0,4.4,0.86,8.6,2.43,12.44H51.17c1.57-3.84,2.43-8.04,2.43-12.44
				c0-18.23-14.78-33-33-33c-3.7,0-7.27,0.61-10.6,1.73V120.16c0-18.59,15.07-33.66,33.66-33.66H141.54z M345.22,193.56
				c0-3.8-0.72-7.66-2.25-11.4c-4.78-11.68-16.04-18.75-27.92-18.75c-3.81,0-7.68,0.73-11.42,2.26
				c-6.3-15.41-23.91-22.79-39.33-16.48c-11.67,4.77-18.74,16.03-18.74,27.91c0,3.81,0.73,7.68,2.26,11.42l22.84,55.81l55.82-22.84
				C338.15,216.71,345.22,205.44,345.22,193.56z M211.34,262.84c0-23.2-18.8-42-42-42c-9.94,0-19.08,3.46-26.28,9.24l-18.38-45.79
				c-1.6-4-6.14-5.93-10.14-4.33l-50.96,20.45c-3.99,1.6-5.93,6.14-4.32,10.14l28.83,71.84c1.6,3.99,6.14,5.93,10.13,4.32
				l30.73-12.33c5.02,17.58,21.2,30.46,40.39,30.46C192.54,304.84,211.34,286.03,211.34,262.84z"/>
			<path style="fill:#95EFEF;" d="M342.97,182.16c1.53,3.74,2.25,7.6,2.25,11.4c0,11.88-7.07,23.15-18.74,27.93l-55.82,22.84
				l-22.84-55.81c-1.53-3.74-2.26-7.61-2.26-11.42c0-11.88,7.07-23.14,18.74-27.91c15.42-6.31,33.03,1.07,39.33,16.48
				c3.74-1.53,7.61-2.26,11.42-2.26C326.93,163.41,338.19,170.48,342.97,182.16z"/>
			<path style="fill:#7EE085;" d="M169.34,220.84c23.2,0,42,18.8,42,42c0,23.19-18.8,42-42,42c-19.19,0-35.37-12.88-40.39-30.46
				l20.23-8.12c4-1.6,5.94-6.14,4.33-10.13l-10.45-26.05C150.26,224.3,159.4,220.84,169.34,220.84z"/>
			<path style="fill:#F297D6;" d="M153.51,256.13c1.61,3.99-0.33,8.53-4.33,10.13l-20.23,8.12l-30.73,12.33
				c-3.99,1.61-8.53-0.33-10.13-4.32l-28.83-71.84c-1.61-4,0.33-8.54,4.32-10.14l50.96-20.45c4-1.6,8.54,0.33,10.14,4.33
				l18.38,45.79L153.51,256.13z"/>
			<path style="fill:#EFEF78;" d="M53.6,345.54c0,4.4-0.86,8.6-2.43,12.44h-7.51c-18.59,0-33.66-15.07-33.66-33.66v-10.05
				c3.33-1.12,6.9-1.73,10.6-1.73C38.82,312.54,53.6,327.31,53.6,345.54z"/>
		</g>
		<g>
			<path style="fill:none;stroke:#000000;stroke-width:20;stroke-linejoin:round;stroke-miterlimit:10;" d="M389.48,314.28v10.04
				c0,18.59-15.08,33.66-33.67,33.66h-7.5H51.17h-7.51c-18.59,0-33.66-15.07-33.66-33.66v-10.05V120.16
				c0-18.59,15.07-33.66,33.66-33.66h97.88h116.39h97.88c18.59,0,33.67,15.07,33.67,33.66V314.28z"/>
			<path style="fill:none;stroke:#000000;stroke-width:20;stroke-linejoin:round;stroke-miterlimit:10;" d="M141.54,87.28V86.5
				V64.64c0-12.78,10.37-23.14,23.15-23.14h70.09c12.78,0,23.15,10.36,23.15,23.14V86.5v0.78"/>
			<path style="fill:none;stroke:#000000;stroke-width:20;stroke-linejoin:round;stroke-miterlimit:10;" d="M143.06,230.08
				l10.45,26.05c1.61,3.99-0.33,8.53-4.33,10.13l-20.23,8.12l-30.73,12.33c-3.99,1.61-8.53-0.33-10.13-4.32l-28.83-71.84
				c-1.61-4,0.33-8.54,4.32-10.14l50.96-20.45c4-1.6,8.54,0.33,10.14,4.33L143.06,230.08z"/>
			<path style="fill:none;stroke:#000000;stroke-width:20;stroke-linejoin:round;stroke-miterlimit:10;" d="M303.63,165.67
				c-6.3-15.41-23.91-22.79-39.33-16.48c-11.67,4.77-18.74,16.03-18.74,27.91c0,3.81,0.73,7.68,2.26,11.42l22.84,55.81l55.82-22.84
				c11.67-4.78,18.74-16.05,18.74-27.93c0-3.8-0.72-7.66-2.25-11.4c-4.78-11.68-16.04-18.75-27.92-18.75
				C311.24,163.41,307.37,164.14,303.63,165.67z"/>
			<path style="fill:none;stroke:#000000;stroke-width:20;stroke-linejoin:round;stroke-miterlimit:10;" d="M143.06,230.08
				c7.2-5.78,16.34-9.24,26.28-9.24c23.2,0,42,18.8,42,42c0,23.19-18.8,42-42,42c-19.19,0-35.37-12.88-40.39-30.46"/>
			<path style="fill:none;stroke:#000000;stroke-width:20;stroke-linejoin:round;stroke-miterlimit:10;" d="M51.17,357.98
				c1.57-3.84,2.43-8.04,2.43-12.44c0-18.23-14.78-33-33-33c-3.7,0-7.27,0.61-10.6,1.73"/>
			<path style="fill:none;stroke:#000000;stroke-width:20;stroke-linejoin:round;stroke-miterlimit:10;" d="M348.31,357.98
				c-1.57-3.84-2.43-8.04-2.43-12.44c0-18.23,14.77-33,33-33c3.71,0,7.27,0.61,10.6,1.74"/>
		</g>
	</g>
</g>
<g>
</g>
<g>
</g>
<g>
</g>
<g>
</g>
<g>
</g>
<g>
</g>
<g>
</g>
<g>
</g>
<g>
</g>
<g>
</g>
<g>
</g>
<g>
</g>
<g>
</g>
<g>
</g>
<g>
</g>
</svg>
