<?xml version="1.0" encoding="iso-8859-1"?>
<!-- Generator: Adobe Illustrator 19.0.0, SVG Export Plug-In . SVG Version: 6.00 Build 0)  -->
<svg version="1.1" id="Layer_1" xmlns="http://www.w3.org/2000/svg" xmlns:xlink="http://www.w3.org/1999/xlink" x="0px" y="0px"
	 viewBox="0 0 512 512" style="enable-background:new 0 0 512 512;" xml:space="preserve">
<path style="fill:#E4E4E4;" d="M475.682,41.273c0-18.166-14.861-33.029-33.026-33.029H69.346c-18.166,0-33.028,14.863-33.028,33.029
	v429.453c0,18.166,14.863,33.029,33.028,33.029h373.309c18.163,0,33.026-14.863,33.026-33.029L475.682,41.273L475.682,41.273z"/>
<path style="fill:#A4A9AD;" d="M442.656,8.244H69.346c-18.166,0-33.028,14.863-33.028,33.029v54.545h439.364V41.273
	C475.682,23.107,460.82,8.244,442.656,8.244z"/>
<g>
	<path style="fill:#333E48;" d="M36.318,470.727c0,18.166,14.863,33.029,33.028,33.029h373.309
		c18.163,0,33.026-14.863,33.026-33.029H36.318z"/>
	<path style="fill:#333E48;" d="M256.001,153.616c-67.489,0-122.2,54.711-122.2,122.2c0,67.491,54.71,122.202,122.2,122.202
		s122.202-54.71,122.202-122.202C378.203,208.327,323.49,153.616,256.001,153.616z"/>
</g>
<circle style="fill:#99DAEA;" cx="255.997" cy="275.816" r="99.084"/>
<path style="fill:#6FD1E6;" d="M352.314,252.571c-7.258,1.15-14.233,4.471-19.799,10.033c-14.021,14.03-36.981,14.03-51.007,0
	c-14.029-14.028-36.985-14.028-51.015,0c-14.028,14.03-36.981,14.03-51.01,0c-5.565-5.562-12.536-8.883-19.795-10.033
	c-1.793,7.458-2.77,15.235-2.77,23.244c0,54.721,44.362,99.083,99.083,99.083c54.722,0,99.083-44.36,99.083-99.083
	C355.082,267.807,354.108,260.03,352.314,252.571z"/>
<path style="fill:#5C6670;" d="M322.413,38.571c0-7.268-5.945-13.212-13.212-13.212H202.794c-7.266,0-13.212,5.942-13.212,13.212
	v28.074c0,7.267,5.945,13.213,13.212,13.213h106.408c7.266,0,13.212-5.945,13.212-13.213V38.571z"/>
<rect x="213.556" y="36.637" style="fill:#99DAEA;" width="84.882" height="31.932"/>
<path style="fill:#1E252B;" d="M442.656,0H69.346C46.589,0,28.074,18.515,28.074,41.273v429.453
	c0,22.758,18.515,41.273,41.272,41.273h373.309c22.756,0,41.27-18.515,41.27-41.273V41.273C483.926,18.515,465.412,0,442.656,0z
	 M442.656,495.512H69.346c-10.777,0-19.963-6.916-23.369-16.541h420.046C462.618,488.595,453.431,495.512,442.656,495.512z
	 M467.438,462.482H44.562V104.063h422.875V462.482z M197.828,66.645V38.571c0-2.692,2.274-4.967,4.967-4.967h106.408
	c2.692,0,4.967,2.274,4.967,4.967v28.074c0,2.693-2.274,4.968-4.967,4.968H202.795C200.102,71.612,197.828,69.338,197.828,66.645z
	 M467.438,87.575H313.867c9.593-2.138,16.789-10.703,16.789-20.93V38.571c0-11.831-9.625-21.456-21.456-21.456H202.793
	c-11.831,0-21.456,9.625-21.456,21.456v28.074c0,10.227,7.198,18.792,16.789,20.93H44.562V41.273
	c0-13.667,11.118-24.785,24.784-24.785h373.309c13.665,0,24.782,11.119,24.782,24.785L467.438,87.575L467.438,87.575z
	 M206.459,313.492c6.385,0,11.562-5.176,11.562-11.559c0-6.386-5.175-11.562-11.562-11.562c-6.383,0-11.559,5.175-11.559,11.562
	C194.9,308.316,200.077,313.492,206.459,313.492z M161.321,40.223c-6.838,0-12.384,5.544-12.384,12.385
	c0,6.84,5.546,12.386,12.384,12.386c6.844,0,12.389-5.546,12.389-12.386C173.71,45.767,168.164,40.223,161.321,40.223z
	 M286.031,343.524c8.293,0,15.016-6.724,15.016-15.016c0-8.29-6.724-15.014-15.016-15.014c-8.29,0-15.014,6.724-15.014,15.014
	C271.017,336.799,277.741,343.524,286.031,343.524z M350.679,40.223c-6.843,0-12.388,5.544-12.388,12.385
	c0,6.84,5.546,12.386,12.388,12.386c6.84,0,12.384-5.546,12.384-12.386S357.519,40.223,350.679,40.223z M256.001,383.143
	c59.18,0,107.327-48.147,107.327-107.327S315.18,168.489,256.001,168.489s-107.327,48.147-107.327,107.327
	S196.821,383.143,256.001,383.143z M256.001,184.978c39.95,0,73.932,25.933,86.063,61.84c-5.75,2.191-10.968,5.551-15.379,9.959
	c-5.225,5.228-12.209,8.107-19.671,8.107c-7.461,0-14.449-2.88-19.677-8.109c-17.279-17.279-45.393-17.278-62.674,0.001
	c-5.228,5.228-12.215,8.108-19.674,8.108c-7.46,0-14.449-2.88-19.679-8.111c-4.408-4.405-9.625-7.764-15.373-9.953
	C182.067,210.912,216.051,184.978,256.001,184.978z M166.07,263.1c2.799,1.332,5.361,3.115,7.582,5.335
	c8.343,8.342,19.472,12.938,31.337,12.938c11.864,0,22.992-4.596,31.333-12.938c10.853-10.85,28.508-10.849,39.356-0.001
	c8.341,8.343,19.469,12.939,31.337,12.939c11.867,0,22.995-4.596,31.328-12.936c2.223-2.222,4.787-4.004,7.588-5.337
	c0.585,4.157,0.908,8.399,0.908,12.716c0,50.088-40.749,90.838-90.838,90.838s-90.838-40.749-90.838-90.838
	C165.162,271.498,165.485,267.259,166.07,263.1z M256.001,406.263c71.929,0,130.447-58.518,130.447-130.447
	c0-71.927-58.518-130.444-130.447-130.444c-63.911,0-117.23,46.202-128.322,106.96h-3.838v46.971h3.84
	C138.771,360.06,192.09,406.263,256.001,406.263z M256.001,161.86c62.837,0,113.958,51.12,113.958,113.956
	c0,62.837-51.121,113.958-113.958,113.958c-62.836,0-113.956-51.121-113.956-113.958C142.044,212.98,193.165,161.86,256.001,161.86z
	 M390.588,40.223c-6.84,0-12.386,5.544-12.386,12.385c0,6.84,5.546,12.386,12.386,12.386c6.842,0,12.386-5.546,12.386-12.386
	C402.975,45.767,397.429,40.223,390.588,40.223z"/>
<g>
</g>
<g>
</g>
<g>
</g>
<g>
</g>
<g>
</g>
<g>
</g>
<g>
</g>
<g>
</g>
<g>
</g>
<g>
</g>
<g>
</g>
<g>
</g>
<g>
</g>
<g>
</g>
<g>
</g>
</svg>
