<?xml version="1.0" encoding="iso-8859-1"?>
<!-- Generator: Adobe Illustrator 19.0.0, SVG Export Plug-In . SVG Version: 6.00 Build 0)  -->
<svg version="1.1" id="Capa_1" xmlns="http://www.w3.org/2000/svg" xmlns:xlink="http://www.w3.org/1999/xlink" x="0px" y="0px"
	 viewBox="0 0 448.358 448.358" style="enable-background:new 0 0 448.358 448.358;" xml:space="preserve">
<path style="fill:#A5B5C1;" d="M448.358,0.282l-96,32l20.687,20.686l-85.374,85.375c-6.25,6.25-6.25,16.375,0,22.625
	c6.25,6.25,16.375,6.25,22.625,0l85.375-85.375l20.687,20.689L448.358,0.282z"/>
<path style="fill:#D64230;" d="M288.915,80.076c-43.665,0-65.501,24.576-81.5,40.577c-15.999-16.001-37.835-40.577-81.5-40.577
	c-87.212,0-132.275,106.222-69.854,168.646l151.354,151.354L358.77,248.723C421.19,186.3,376.126,80.076,288.915,80.076z"/>
<rect x="231.075" y="224.839" transform="matrix(-0.7071 0.7071 -0.7071 -0.7071 620.4791 304.9851)" style="fill:#AC382B;" width="32" height="112.319"/>
<path style="fill:#CDD7DF;" d="M218.671,229.968c-6.25-6.25-16.375-6.25-22.625,0l-90.442,90.442H63.871L0,384.282h53.045
	l-26.522,26.522l11.313,11.313l26.523-26.523v52.482l63.871-63.871v-41.17l90.442-90.442
	C224.921,246.344,224.921,236.219,218.671,229.968z"/>
<path style="fill:#A5B5C1;" d="M64.358,395.595v52.481l63.871-63.871v-41.168l90.442-90.442c4.18-4.18,5.498-10.074,4.09-15.402
	L64.358,395.595z"/>
<g>
</g>
<g>
</g>
<g>
</g>
<g>
</g>
<g>
</g>
<g>
</g>
<g>
</g>
<g>
</g>
<g>
</g>
<g>
</g>
<g>
</g>
<g>
</g>
<g>
</g>
<g>
</g>
<g>
</g>
</svg>
