<?xml version="1.0" encoding="iso-8859-1"?>
<!-- Generator: Adobe Illustrator 19.0.0, SVG Export Plug-In . SVG Version: 6.00 Build 0)  -->
<svg version="1.1" id="Capa_1" xmlns="http://www.w3.org/2000/svg" xmlns:xlink="http://www.w3.org/1999/xlink" x="0px" y="0px"
	 viewBox="0 0 512 512" style="enable-background:new 0 0 512 512;" xml:space="preserve">
<path style="fill:#994C0F;" d="M286,421h-60c-8.401,0-15,6.599-15,15v61c0,8.401,6.599,15,15,15h60c8.401,0,15-6.599,15-15v-61
	C301,427.599,294.401,421,286,421z"/>
<path style="fill:#713708;" d="M301,436v61c0,8.401-6.599,15-15,15h-30v-91h30C294.401,421,301,427.599,301,436z"/>
<path style="fill:#32D736;" d="M442.899,421L436,451H76c-6,0-11.1-3.3-13.5-8.699c-2.699-5.4-1.8-11.7,2.1-16.201l81.601-95.1H106
	l-6.899-30l75-90H166c-5.7,0-10.8-3.3-13.5-8.401c-2.401-5.099-1.8-11.1,1.5-15.599l48.301-64.501l24.899,1.8l-4.8-28.798
	L243.999,67c3.001-3.6,7.5-5.7,12.001-5.7s9,2.1,12.001,5.7L353.5,181l-15.601,30l79.501,95.4c3.9,4.501,4.799,10.8,2.1,15.901
	C417.1,327.7,411.7,331,406,331h-40.201L442.899,421z"/>
<g>
	<path style="fill:#10BB67;" d="M442.899,421L436,451H256V61.3c4.501,0,9,2.1,12.001,5.7L353.5,181l-15.601,30l79.501,95.4
		c3.9,4.501,4.799,10.8,2.1,15.901C417.1,327.7,411.7,331,406,331h-40.201L442.899,421z"/>
	<path style="fill:#10BB67;" d="M449.5,442.301C447.1,447.7,442,451,436,451h-30c-52.8,0-104.399-13.5-150-38.101
		c-39.6-21.599-74.7-50.999-102.001-87.9c-5.099-6.599-3.6-15.899,3.001-21c6.599-5.099,15.899-3.6,21,3.001
		c21.3,28.799,48,52.801,78,71.1c44.7,27.6,96.599,42.9,150,42.9h36.899l4.501,5.099C451.3,430.6,452.199,436.901,449.5,442.301z"/>
</g>
<path style="fill:#0CA656;" d="M449.5,442.301C447.1,447.7,442,451,436,451h-30c-52.8,0-104.399-13.5-150-38.101V378.1
	c44.7,27.6,96.599,42.9,150,42.9h36.899l4.501,5.099C451.3,430.6,452.199,436.901,449.5,442.301z"/>
<g>
	<path style="fill:#10BB67;" d="M331,202.301c-2.401,50.4-32.401,93.6-75,114.6c-17.999,9-38.401,14.099-60,14.099h-90
		c-5.7,0-11.1-3.3-13.5-8.699c-2.699-5.101-1.8-11.4,2.1-15.901l4.501-5.4H196c22.5,0,42.9-6.899,60-19.2
		c26.1-17.699,43.5-47.1,45-81c0.3-8.099,7.8-14.7,15.601-14.399C324.699,187,331.3,193.9,331,202.301z"/>
	<path style="fill:#10BB67;" d="M359.5,202.599C356.8,207.7,351.7,211,346,211h-34.501c-20.099,0-39.3-5.7-55.499-15.901
		c-16.199-9.899-29.399-24.3-38.401-41.999l-15.298-30.6L222.4,95.501l22.2,44.099c2.999,6.301,6.899,12.001,11.4,16.8
		c14.099,15.6,33.9,24.6,55.499,24.6H353.5l4.501,6C361.3,191.499,361.901,197.5,359.5,202.599z"/>
</g>
<g>
	<path style="fill:#0CA656;" d="M331,202.301c-2.401,50.4-32.401,93.6-75,114.6V281.8c26.1-17.699,43.5-47.1,45-81
		c0.3-8.099,7.8-14.7,15.601-14.399C324.699,187,331.3,193.9,331,202.301z"/>
	<path style="fill:#0CA656;" d="M359.5,202.599C356.8,207.7,351.7,211,346,211h-34.501c-20.099,0-39.3-5.7-55.499-15.901V156.4
		c14.099,15.6,33.9,24.6,55.499,24.6H353.5l4.501,6C361.3,191.499,361.901,197.5,359.5,202.599z"/>
</g>
<circle style="fill:#CCEFFF;" cx="286" cy="346" r="15"/>
<circle style="fill:#DCF4FF;" cx="226" cy="256" r="15"/>
<path style="fill:#FEDB41;" d="M256,0c-24.901,0-45,21.099-45,46s20.099,45,45,45s45-20.099,45-45S280.901,0,256,0z"/>
<path style="fill:#FFCC33;" d="M301,46c0,24.901-20.099,45-45,45V0C280.901,0,301,21.099,301,46z"/>
<g>
</g>
<g>
</g>
<g>
</g>
<g>
</g>
<g>
</g>
<g>
</g>
<g>
</g>
<g>
</g>
<g>
</g>
<g>
</g>
<g>
</g>
<g>
</g>
<g>
</g>
<g>
</g>
<g>
</g>
</svg>
