<?xml version="1.0" encoding="iso-8859-1"?>
<!-- Generator: Adobe Illustrator 19.0.0, SVG Export Plug-In . SVG Version: 6.00 Build 0)  -->
<svg version="1.1" id="Layer_1" xmlns="http://www.w3.org/2000/svg" xmlns:xlink="http://www.w3.org/1999/xlink" x="0px" y="0px"
	 viewBox="0 0 455 455" style="enable-background:new 0 0 455 455;" xml:space="preserve">
<path style="fill-rule:evenodd;clip-rule:evenodd;" d="M0,0v455h455V0H0z M243.813,93.855C255.174,80.547,274.37,70.645,290.205,70
	c2.025,18.46-5.396,36.965-16.391,50.303c-11.003,13.305-29.049,23.669-46.728,22.29C224.694,124.503,233.62,105.661,243.813,93.855
	z M333.932,345.888c-13.14,19.193-26.739,38.296-48.203,38.695c-21.11,0.397-27.887-12.508-52.001-12.508
	c-24.116,0-31.66,12.109-51.607,12.905c-20.714,0.769-36.487-20.725-49.718-39.861c-27.076-39.095-47.741-110.505-19.962-158.708
	c13.768-23.946,38.422-39.095,65.159-39.492c20.344-0.369,39.555,13.704,51.97,13.704c12.452,0,35.784-16.924,60.316-14.44
	c10.271,0.43,39.095,4.137,57.597,31.216c-1.472,0.949-34.402,20.082-34.006,59.973c0.415,47.651,41.792,63.501,42.27,63.72
	C355.378,302.193,349.123,323.688,333.932,345.888z"/>
<g>
</g>
<g>
</g>
<g>
</g>
<g>
</g>
<g>
</g>
<g>
</g>
<g>
</g>
<g>
</g>
<g>
</g>
<g>
</g>
<g>
</g>
<g>
</g>
<g>
</g>
<g>
</g>
<g>
</g>
</svg>
