<?xml version="1.0" encoding="iso-8859-1"?>
<!-- Generator: Adobe Illustrator 16.0.0, SVG Export Plug-In . SVG Version: 6.00 Build 0)  -->
<!DOCTYPE svg PUBLIC "-//W3C//DTD SVG 1.1//EN" "http://www.w3.org/Graphics/SVG/1.1/DTD/svg11.dtd">
<svg xmlns="http://www.w3.org/2000/svg" xmlns:xlink="http://www.w3.org/1999/xlink" version="1.1" id="Capa_1" x="0px" y="0px" width="512px" height="512px" viewBox="0 0 416.98 416.98" style="enable-background:new 0 0 416.98 416.98;" xml:space="preserve">
<g>
	<path d="M315.798,359.29v-41.647c0-56.385-49.67-92.086-81.424-109.152c31.754-17.065,81.424-52.767,81.424-109.151V57.69   c9.611-5.65,15.94-15.271,15.94-26.191C331.738,14.103,315.682,0,295.876,0H121.104c-19.806,0-35.862,14.103-35.862,31.499   c0,10.92,6.33,20.541,15.94,26.191v41.648c0,56.385,49.67,92.086,81.424,109.151c-31.754,17.065-81.424,52.769-81.424,109.151   v41.649c-9.611,5.65-15.94,15.271-15.94,26.191c0,17.396,16.057,31.499,35.862,31.499h174.772   c19.807,0,35.862-14.104,35.862-31.499C331.739,374.562,325.409,364.94,315.798,359.29z M141.182,99.338V65.749   c0-5.523,4.477-10,10-10h114.616c5.523,0,10,4.477,10,10v33.589c0,37.436-42.21,64.164-60.359,73.917l-2.216,1.19   c-1.478,0.794-3.104,1.191-4.732,1.191s-3.256-0.397-4.734-1.192l-2.215-1.19C183.393,163.502,141.182,136.775,141.182,99.338z    M275.798,351.231c0,5.522-4.477,10-10,10H151.182c-5.523,0-10-4.478-10-10v-33.589c0-37.437,42.212-64.166,60.36-73.92   l2.212-1.188c2.957-1.59,6.513-1.59,9.47,0l2.214,1.19c18.147,9.752,60.358,36.481,60.358,73.918L275.798,351.231L275.798,351.231z   " fill="#006DF0"/>
	<g>
		<path d="M208.49,275.186c-28.905,18.035-46.308,37.982-46.308,53.779v12.312h92.617v-12.312    C254.799,313.168,237.393,293.219,208.49,275.186z" fill="#006DF0"/>
		<path d="M208.49,159.914c20.166-12.581,32.309-26.499,32.309-37.521v-8.589h-64.617v8.589    C176.182,133.415,188.323,147.333,208.49,159.914z" fill="#006DF0"/>
	</g>
</g>
<g>
</g>
<g>
</g>
<g>
</g>
<g>
</g>
<g>
</g>
<g>
</g>
<g>
</g>
<g>
</g>
<g>
</g>
<g>
</g>
<g>
</g>
<g>
</g>
<g>
</g>
<g>
</g>
<g>
</g>
</svg>
