<?xml version="1.0" encoding="iso-8859-1"?>
<!-- Generator: Adobe Illustrator 18.0.0, SVG Export Plug-In . SVG Version: 6.00 Build 0)  -->
<!DOCTYPE svg PUBLIC "-//W3C//DTD SVG 1.1//EN" "http://www.w3.org/Graphics/SVG/1.1/DTD/svg11.dtd">
<svg xmlns="http://www.w3.org/2000/svg" xmlns:xlink="http://www.w3.org/1999/xlink" version="1.1" id="Capa_1" x="0px" y="0px" viewBox="0 0 213 213" style="enable-background:new 0 0 213 213;" xml:space="preserve" width="512px" height="512px">
<g>
	<path d="M207,1.5H6c-3.313,0-6,2.687-6,6v198c0,3.313,2.687,6,6,6h201c3.313,0,6-2.687,6-6V7.5C213,4.187,210.313,1.5,207,1.5z    M12,13.5h7v186h-7V13.5z M201,199.5H31v-186h170V199.5z" fill="#006DF0"/>
	<path d="M116,184.5c43.009,0,78-34.991,78-78s-34.991-78-78-78s-78,34.991-78,78S72.991,184.5,116,184.5z M116,40.5   c36.393,0,66,29.607,66,66s-29.607,66-66,66s-66-29.607-66-66S79.607,40.5,116,40.5z" fill="#006DF0"/>
	<path d="M116,128.5c12.131,0,22-9.869,22-22s-9.869-22-22-22s-22,9.869-22,22S103.869,128.5,116,128.5z M116,96.5   c5.514,0,10,4.486,10,10s-4.486,10-10,10s-10-4.486-10-10S110.486,96.5,116,96.5z" fill="#006DF0"/>
</g>
<g>
</g>
<g>
</g>
<g>
</g>
<g>
</g>
<g>
</g>
<g>
</g>
<g>
</g>
<g>
</g>
<g>
</g>
<g>
</g>
<g>
</g>
<g>
</g>
<g>
</g>
<g>
</g>
<g>
</g>
</svg>
